<?xml version="1.0" encoding="iso-8859-1"?>
<!-- Generator: Adobe Illustrator 19.0.0, SVG Export Plug-In . SVG Version: 6.00 Build 0)  -->
<svg version="1.1" id="Capa_1" xmlns="http://www.w3.org/2000/svg" xmlns:xlink="http://www.w3.org/1999/xlink" x="0px" y="0px"
	 viewBox="0 0 512 512" style="enable-background:new 0 0 512 512;" xml:space="preserve">
<g>
	<g>
		<path d="M448,0H64C28.704,0,0,28.704,0,64v288c0,35.296,28.704,64,64,64h176v80c0,6.464,3.888,12.304,9.872,14.784
			C251.856,511.6,253.936,512,256,512c4.16,0,8.256-1.632,11.312-4.688L358.624,416H448c35.296,0,64-28.704,64-64V64
			C512,28.704,483.296,0,448,0z M480,352c0,17.648-14.352,32-32,32h-96c-4.256,0-8.32,1.68-11.312,4.688L272,457.376V400
			c0-8.832-7.152-16-16-16H64c-17.648,0-32-14.352-32-32V64c0-17.648,14.352-32,32-32h384c17.648,0,32,14.352,32,32V352z"/>
	</g>
</g>
<g>
	<g>
		<path d="M270.528,105.328c-2.624-5.664-8.288-9.296-14.528-9.296s-11.904,3.632-14.528,9.296l-96,208l29.056,13.408L207.184,256
			h97.648l32.64,70.736l29.056-13.408L270.528,105.328z M221.952,224L256,150.208L290.048,224H221.952z"/>
	</g>
</g>
<g>
</g>
<g>
</g>
<g>
</g>
<g>
</g>
<g>
</g>
<g>
</g>
<g>
</g>
<g>
</g>
<g>
</g>
<g>
</g>
<g>
</g>
<g>
</g>
<g>
</g>
<g>
</g>
<g>
</g>
</svg>
